<svg xmlns="http://www.w3.org/2000/svg" viewBox="0 0 378 203">
  <style>
    .Arched_x0020_Green{fill:url(#SVGID_1_);stroke:#FFFFFF;stroke-width:0.25;stroke-miterlimit:1;} .st0{fill:#282728;} .st1{fill:#494949;}
  </style>
  <linearGradient id="SVGID_1_" gradientUnits="userSpaceOnUse" x1="-394" y1="798.5" x2="-393.2929" y2="797.7929">
    <stop offset="0" stop-color="#1EAB4B"/>
    <stop offset=".9831" stop-color="#19361A"/>
  </linearGradient>
  <g id="Layer_1">
    <path class="st0" d="M-531.7-402.2h339.3v221.3h-339.3z"/>
    <path class="st1" d="M222.3 45.8c-.6-5.4-1.7-10.2-3.4-14.3-.1-.1-.2-.6-.3-.7-1.4-3.2-3.1-5.9-5.1-8-3.6-3.9-8-6.1-12.9-6.2h-.1c-.8-1.7-2.9-3.1-4.8-3.4 0 0-1.1-4.4-5.7-4.4s-5.7 4.4-5.7 4.4c-1.9.3-4.1 1.7-4.9 3.4h-.1c-4.9.1-9.4 2.2-12.9 6.2-2 2.1-3.7 4.8-5.1 8 0 .1-.2.5-.3.7-1.7 4-2.9 8.8-3.4 14.3-2.7 26.7 9.3 59.5 30.9 64.5.3.5 1.1 1.5 1.5 1.5.4 0 1.2-1 1.5-1.5 21.5-5 33.5-37.8 30.8-64.5zM189.9 9.9c3.8 0 4.6 3.2 4.6 3.2-.3 0-.5 0-.8.1l-.7.2c-1.3.4-2.3 1.4-3 2.6l-.1.1c-.1 0-.1-.1-.1-.1-.7-1.2-1.8-2.2-3.1-2.6l-.7-.2c-.2-.1-.5-.1-.8-.1 0 0 .9-3.2 4.7-3.2zm-2.1 5.1c.9.6 1.5 1.6 1.8 2.6.2.5.4.5.6 0 .4-1.1 1.1-2.2 2.1-2.8 2.7-1.5 5.7-.4 6.9 2-.5.1-1 .1-1.5.3-.3.1-.5.2-.8.2h-.2c-1.2.5-1.8.8-2.7 1.6-1.6 1.6-3 4-3.2 7.1-.8 8.6 9.1 7.3 9.6 7.2 1.3 0 2.2-2 2.2-4.7s-1-4.7-2.2-4.7c-.8 0-2.1.6-2.2 3-.1 1.7.7 3.9 1.8 4.1.6.1 1.1-.9 1.2-1.9.1-.9.1-2.2-.7-2.4-.2-.1-.5.1-.5.3-.1.2.5.6.5 1.6 0 1.5-1.5.7-1.3-1.6.2-2.1 1.2-1.9 1.3-1.9.6 0 1.5 1.2 1.5 3.6 0 2.1-1 4.3-2.9 3.1-1.6-1.2-2.2-3.9-1.8-6 .2-1 1-3.6 3.7-3.6 3.8 0 7.3 2 10.2 5.6v.1c-.3.9-2.4 5-8.7 8.7-1.4-.8-2.7-1-4-1.1-1.3-.1-2.6-.2-3.8.1l-3.8.9c-.5.1-1 .1-1.5 0l-4.1-1c-1.3-.3-2.7-.3-4.1-.1-1.2.1-2.1.5-3.6 1.1l-.3-.2c-6.3-3.7-8.3-7.5-8.6-8.5 2.9-3.8 6.4-5.8 10.3-5.8 2.7 0 3.5 2.6 3.7 3.6.4 2.1-.2 4.8-1.8 6-1.9 1.2-2.9-1.1-2.9-3.1 0-2.3.9-3.6 1.5-3.6 0 0 1.1-.1 1.3 1.9.2 2.3-1.3 3.1-1.3 1.6 0-1 .5-1.4.5-1.6-.1-.2-.3-.4-.5-.3-.8.2-.8 1.5-.7 2.4.2 1 .7 2 1.2 1.9 1.1-.1 1.9-2.4 1.8-4.1-.1-2.4-1.5-3-2.2-3-1.3 0-2.2 2-2.2 4.7s1 4.7 2.2 4.7c.5 0 10.4 1.4 9.6-7.2-.3-3.1-1.8-5.6-3.6-7.2-.8-.7-1.7-1.2-2.8-1.6-.8-.2-1.3-.4-2-.5 1-2.2 4.2-3.3 7-1.5zm-18.7 35.5c-3.2-.3-5.7-1.4-6.8-2 .5-8.6 2.7-15.4 5.9-19.9.6 1.5 3 5.1 8.7 8.5-4.6 3.3-7.1 8.9-7.8 13.4zm8.4-12.3c1.4-.9 3.3-1.3 5.2-1.4 3.2-.2 5.5 1 7.1 1.1h.1c1.6 0 4.1-1.3 7.4-1.1 1.9.1 3.8.5 5.2 1.4 6.6 4.2 7.5 13.9 7.7 17.1.5 11.2-3.1 20-4.2 22.4-4.6 10-10.1 16.9-15.5 19.3l-.4.2-.4-.2c-5.4-2.4-10.9-9.3-15.5-19.3-1.1-2.4-4.6-11.2-4.2-22.4-.1-3.2.9-12.9 7.5-17.1zM169 51.1c-.2 1.7-.3 3-.4 3.9-.1 1.4-.1 2.8 0 4.2v1c.2 2.7.5 5.4 1.1 8.1l.1.3c1.1 4.8 2.5 8.2 3 9.4 1 2.2 2 4.2 3 6-2 1.8-5 2.6-6.1 2.8-5.5-10.9-8.3-24.9-7.6-37.6 1.4.7 3.8 1.6 6.9 1.9zm7.2 33.5c3.6 6.3 7.2 10 10 12-1 2.5-3.3 4.5-4.2 5.1-4.7-3.2-8.7-8.2-11.9-14.3 1.2-.3 4.1-1 6.1-2.8zm10.5 12.3c1.5 1.1 3.1 1.7 3.2 1.8.1 0 1.7-.6 3.2-1.7 0 0 .1 0 .1-.1 1 2.5 3.1 4.4 4.1 5.2-1.4.9-2.8 1.6-4.3 2.1v-.2c-.3-1.6-2.4-1.9-3.1-1.9-.7 0-2.8.3-3.1 1.9v.2c-1.5-.5-2.9-1.2-4.2-2.1.9-.8 3.1-2.7 4.1-5.2zm7-.4c2.7-2 6.3-5.7 9.9-12 1.9 1.8 4.7 2.5 6 2.8-3.1 6.1-7.1 11.1-11.8 14.3-.8-.7-3.1-2.6-4.1-5.1zM204 83.9c1-1.8 2-3.7 3-5.9.6-1.3 2-4.7 3-9.4l.1-.3c.6-2.7 1-5.4 1.1-8.1V60v-.8c.1-1.4.1-2.8 0-4.2 0-.9-.1-2.3-.4-3.9 3.1-.3 5.5-1.3 6.8-1.9.4 12.6-2.3 26.7-7.7 37.5-1.2-.2-4-1-5.9-2.8zm6.7-33.4c-.7-4.5-3.1-10.1-7.6-13.4 5.8-3.4 8.1-7.1 8.6-8.5 3.3 4.5 5.5 11.4 5.9 20-1.1.5-3.6 1.6-6.9 1.9zM179.4 105l-.5-.4c-5-3.6-9.4-9.1-12.9-16.2l-.3-.6c-.4-.8-.8-1.6-1.1-2.4-5-11.5-7.2-25.1-6.2-37.8l.1-.6c0-.3.1-.7.1-1 .9-8.5 3.2-15.4 6.7-20.2l.4-.5c3.6-4.8 8.4-7.4 13.9-7.4.8 0 2.8.1 4.6 1.2 1.9 1.4 3.6 3.7 3.9 7.1.5 5.3-5 6.2-6 6.2-.2 0-.2-.2.3-.7 1.2-1.6 1.7-4.1 1.2-6-.5-2.4-2.2-4.4-4.7-4.4-4.1 0-7.8 2.1-10.7 5.9l-.4.5c-3.3 4.6-5.6 11.5-6.3 19.8v.7c0 .3 0 .5-.1.8-.8 12.6 2 26.6 7.4 37.6l.3.6c3.1 6.2 7.2 11.5 11.9 14.9l.6.4c1.7 1.1 3.4 2.1 5.3 2.7-.1 1.4.3 2.6.8 3.7-3-.9-5.7-2.2-8.3-3.9zm10.9 5.3s-.2.3-.4.3-.4-.2-.4-.3c-.9-1.2-2.3-3.4-1.8-6.1.1-.8 1.5-1.1 2.2-1.1.7 0 2 .3 2.2 1.1.5 2.6-.9 4.9-1.8 6.1zm25-24.9c-.4.8-.7 1.6-1.1 2.4l-.3.6c-3.5 7.1-7.9 12.5-12.9 16.2l-.5.4c-2.6 1.8-5.3 3.1-8.1 3.8.5-1 .8-2.3.8-3.7 1.9-.7 3.6-1.6 5.3-2.8l.6-.4c4.7-3.4 8.8-8.6 11.9-14.9l.3-.6c5.4-11 8.1-25 7.4-37.6 0-.3 0-.5-.1-.8v-.7c-.7-8.3-3-15.2-6.3-19.8l-.4-.5c-2.9-3.8-6.5-5.9-10.7-5.9-2.5 0-4.2 1.9-4.7 4.4-.4 2 0 4.4 1.2 6 .6.7.3.9.2.9-1.6 0-6.4-1-5.9-6.3.3-3.5 2-5.8 3.9-7.1 1.8-1.1 3.8-1.2 4.6-1.2 5.5 0 10.3 2.7 13.9 7.4l.4.5c3.5 4.9 5.8 11.8 6.7 20.2 0 .3.1.7.1 1l.1.6c.8 12.8-1.4 26.5-6.4 37.9z"/>
    <path class="st1" d="M199.7 45.9v2.2l.4-.1h.2c.2 0 .7 0 1 .3.3.3.3.7.3 1.3 0 0-4.4 19.1-5.2 22.7-1-4.6-6.2-29.7-6.2-29.7v-.1h-1v.1s-3.8 24.4-4.6 29.3c-1-4.2-5.2-22.4-5.2-22.4v-.3c0-.5.1-.9.4-1.1.3-.3.8-.3.9-.3l.4.1v-2.1h-7.4V48l.3.1c.2 0 1 .2 1.1 1 0 0 8.6 37 9 38.6v.1h1.3v-.1c0-.3 3.5-23.2 4.2-27.5.8 4.3 5.3 27.3 5.3 27.5v.1h1.2l8.6-38.7c.2-.8.9-.9 1.2-.9h.5V46h-6.7z"/>
    <g>
      <path class="st1" d="M135.7 136.5c.2 0 .3.1.5.2l1.3 1.4c-.9 1.1-2 1.9-3.3 2.4-1.3.6-2.8.9-4.6.9-1.6 0-3-.3-4.3-.8-1.3-.5-2.4-1.3-3.3-2.3-.9-1-1.6-2.2-2.1-3.5-.5-1.4-.7-2.9-.7-4.5s.3-3.1.8-4.5 1.3-2.5 2.2-3.5c.9-1 2.1-1.7 3.4-2.3 1.3-.5 2.8-.8 4.3-.8s2.9.3 4.1.8c1.2.5 2.3 1.2 3.1 2l-1.1 1.5-.3.3c-.1.1-.2.1-.4.1s-.4-.1-.7-.3c-.3-.2-.6-.4-1-.6-.4-.2-.9-.5-1.6-.6-.6-.2-1.4-.3-2.3-.3-1.1 0-2.1.2-3 .6-.9.4-1.7.9-2.3 1.6-.7.7-1.2 1.6-1.5 2.6-.4 1-.5 2.2-.5 3.5 0 1.3.2 2.5.6 3.5.4 1 .9 1.9 1.5 2.6.7.7 1.4 1.3 2.3 1.6.9.4 1.9.6 2.9.6.6 0 1.2 0 1.7-.1s1-.2 1.4-.3c.4-.2.8-.3 1.2-.6.4-.2.7-.5 1.1-.9.1-.1.2-.1.3-.2.1-.1.2-.1.3-.1zM146.5 125.5c1.1 0 2.2.2 3.1.6.9.4 1.7.9 2.3 1.6.6.7 1.1 1.5 1.5 2.5.3 1 .5 2.1.5 3.3 0 1.2-.2 2.3-.5 3.3s-.8 1.8-1.5 2.5c-.6.7-1.4 1.2-2.3 1.6-.9.4-1.9.6-3.1.6-1.1 0-2.2-.2-3.1-.6-.9-.4-1.7-.9-2.3-1.6-.6-.7-1.1-1.5-1.5-2.5-.3-1-.5-2.1-.5-3.3 0-1.2.2-2.3.5-3.3s.8-1.8 1.5-2.5c.6-.7 1.4-1.2 2.3-1.6.9-.4 2-.6 3.1-.6zm0 13.5c1.5 0 2.5-.5 3.3-1.5.7-1 1.1-2.4 1.1-4.1 0-1.8-.4-3.2-1.1-4.2-.7-1-1.8-1.5-3.3-1.5-1.5 0-2.6.5-3.3 1.5-.7 1-1.1 2.4-1.1 4.2 0 1.8.4 3.2 1.1 4.1.7 1.1 1.8 1.5 3.3 1.5zM160.1 118.7v22.4h-3v-22.4h3zM167.1 118.7v22.4h-3v-22.4h3zM183.8 138.9c-.4.4-.8.8-1.3 1.1-.5.3-1 .6-1.5.8s-1.1.3-1.7.4c-.6.1-1.1.1-1.7.1-1.1 0-2-.2-3-.5-.9-.4-1.7-.9-2.4-1.6-.7-.7-1.2-1.6-1.5-2.6-.4-1-.6-2.2-.6-3.5 0-1.1.2-2.1.5-3 .3-.9.8-1.7 1.4-2.4.6-.7 1.4-1.2 2.3-1.6s1.9-.6 3-.6c.9 0 1.8.2 2.6.5s1.5.8 2.1 1.3c.6.6 1 1.3 1.4 2.2.3.9.5 1.8.5 2.9 0 .5-.1.8-.2.9-.1.2-.3.2-.6.2H173c0 .9.2 1.7.4 2.4s.6 1.3 1 1.7c.4.5.9.8 1.5 1 .6.2 1.2.3 1.9.3s1.2-.1 1.7-.2c.5-.2.9-.3 1.2-.5.3-.2.6-.3.9-.5.2-.2.4-.2.6-.2.2 0 .4.1.6.3l1 1.1zm-2.4-7.2c0-.6-.1-1.1-.3-1.6-.2-.5-.4-.9-.7-1.3-.3-.4-.7-.6-1.2-.9-.5-.2-1-.3-1.6-.3-1.2 0-2.2.4-2.9 1.1-.7.7-1.2 1.7-1.4 3h8.1zM200.2 126.3v1.1c0 .4-.2.6-.7.7l-1.7.2c.1.3.3.6.3 1 .1.3.1.7.1 1.1 0 .8-.1 1.4-.4 2.1-.3.6-.7 1.1-1.2 1.6-.5.4-1.1.8-1.8 1s-1.5.3-2.3.3c-.7 0-1.4-.1-2-.2-.3.2-.5.4-.7.6-.2.2-.2.4-.2.6 0 .4.1.6.4.8.3.2.7.3 1.2.4.5.1 1 .1 1.7.1.6 0 1.3.1 1.9.1.6 0 1.3.1 1.9.2.6.1 1.2.3 1.7.6s.9.6 1.2 1.1c.3.5.4 1 .4 1.8 0 .7-.2 1.3-.5 1.9-.3.6-.8 1.2-1.4 1.7-.6.5-1.4.9-2.3 1.2s-1.9.4-3.1.4c-1.1 0-2.1-.1-3-.3-.8-.2-1.5-.5-2.1-.9s-1-.8-1.3-1.3c-.3-.5-.4-1-.4-1.5 0-.7.2-1.4.7-1.9.5-.5 1.1-.9 1.9-1.2-.4-.2-.8-.5-1.1-.8-.3-.3-.4-.8-.4-1.4 0-.2 0-.5.1-.7.1-.2.2-.5.4-.7s.4-.5.6-.7c.2-.2.5-.4.9-.6-.8-.4-1.4-1-1.8-1.7s-.7-1.5-.7-2.5c0-.8.1-1.4.4-2 .3-.6.7-1.1 1.2-1.6.5-.4 1.1-.8 1.9-1 .7-.2 1.5-.3 2.4-.3 1.3 0 2.5.3 3.4.8h4.4zm-3 15.6c0-.4-.1-.7-.3-.9-.2-.2-.5-.4-.8-.5-.3-.1-.8-.2-1.2-.3-.5-.1-1-.1-1.5-.1s-1-.1-1.6-.1c-.5 0-1.1-.1-1.5-.1-.5.3-1 .6-1.3 1-.3.4-.5.8-.5 1.3 0 .3.1.6.3.9.2.3.4.5.8.7.3.2.8.4 1.3.5.5.1 1.2.2 1.9.2s1.4-.1 1.9-.2c.6-.1 1-.3 1.4-.5.4-.2.7-.5.9-.8.1-.3.2-.7.2-1.1zm-4.8-8.5c.5 0 1-.1 1.4-.2.4-.1.7-.3 1-.6.3-.3.5-.6.6-.9.1-.4.2-.8.2-1.2 0-.9-.3-1.6-.8-2.1s-1.3-.8-2.4-.8c-1 0-1.8.3-2.4.8-.5.5-.8 1.2-.8 2.1 0 .4.1.8.2 1.2.1.4.3.7.6.9.3.3.6.5 1 .6.5.2.9.2 1.4.2zM214.9 138.9c-.4.4-.8.8-1.3 1.1-.5.3-1 .6-1.5.8-.5.2-1.1.3-1.7.4-.6.1-1.1.1-1.7.1-1.1 0-2-.2-3-.5-.9-.4-1.7-.9-2.4-1.6-.7-.7-1.2-1.6-1.5-2.6s-.6-2.2-.6-3.5c0-1.1.2-2.1.5-3 .3-.9.8-1.7 1.4-2.4.6-.7 1.4-1.2 2.3-1.6.9-.4 1.9-.6 3-.6.9 0 1.8.2 2.6.5s1.5.8 2.1 1.3c.6.6 1 1.3 1.4 2.2.3.9.5 1.8.5 2.9 0 .5-.1.8-.2.9-.1.2-.3.2-.6.2h-10.1c0 .9.2 1.7.4 2.4s.6 1.3 1 1.7c.4.5.9.8 1.5 1 .6.2 1.2.3 1.9.3s1.2-.1 1.7-.2c.5-.2.9-.3 1.2-.5.3-.2.6-.3.9-.5.2-.2.4-.2.6-.2.2 0 .4.1.6.3l1 1.1zm-2.4-7.2c0-.6-.1-1.1-.3-1.6-.2-.5-.4-.9-.7-1.3-.3-.4-.7-.6-1.2-.9-.5-.2-1-.3-1.6-.3-1.2 0-2.2.4-2.9 1.1-.7.7-1.2 1.7-1.4 3h8.1zM232.6 125.5c1.1 0 2.2.2 3.1.6.9.4 1.7.9 2.3 1.6.6.7 1.1 1.5 1.5 2.5.3 1 .5 2.1.5 3.3 0 1.2-.2 2.3-.5 3.3s-.8 1.8-1.5 2.5c-.6.7-1.4 1.2-2.3 1.6-.9.4-1.9.6-3.1.6-1.1 0-2.2-.2-3.1-.6-.9-.4-1.7-.9-2.3-1.6-.6-.7-1.1-1.5-1.5-2.5-.3-1-.5-2.1-.5-3.3 0-1.2.2-2.3.5-3.3s.8-1.8 1.5-2.5c.6-.7 1.4-1.2 2.3-1.6.9-.4 1.9-.6 3.1-.6zm0 13.5c1.5 0 2.5-.5 3.3-1.5.7-1 1.1-2.4 1.1-4.1 0-1.8-.4-3.2-1.1-4.2-.7-1-1.8-1.5-3.3-1.5-1.5 0-2.6.5-3.3 1.5-.7 1-1.1 2.4-1.1 4.2 0 1.8.4 3.2 1.1 4.1.7 1.1 1.8 1.5 3.3 1.5zM243.7 141.1v-13l-1.6-.2c-.2-.1-.4-.1-.6-.3-.1-.1-.2-.3-.2-.5V126h2.4v-1.4c0-.9.1-1.7.4-2.4.3-.7.6-1.3 1.1-1.8.5-.5 1-.8 1.7-1.1.7-.2 1.4-.4 2.2-.4.7 0 1.3.1 1.9.3l-.1 1.5c0 .1-.1.2-.1.3-.1.1-.2.1-.3.1-.1 0-.3 0-.4.1h-.5c-.5 0-.9.1-1.2.2-.4.1-.7.3-1 .6-.3.3-.5.6-.6 1-.1.4-.2 1-.2 1.6v1.3h4.3v2.2h-4.2v13h-3zM28.4 171.5h-2.5c-.3 0-.5-.1-.7-.2-.2-.1-.3-.3-.4-.5l-1.9-5.1h-9.6l-1.9 5.1c-.1.2-.2.4-.4.5-.2.2-.4.2-.7.2H7.8l8.7-21.8h3.3l8.6 21.8zm-6.4-8.1l-3.2-8.5c-.2-.6-.5-1.3-.7-2.2l-.3 1.2c-.1.4-.2.7-.3 1l-3.2 8.4H22zM44.3 156.6v1.1c0 .4-.2.6-.7.7l-1.7.2c.1.3.3.6.3 1 .1.3.1.7.1 1.1 0 .8-.1 1.4-.4 2.1-.3.6-.7 1.1-1.2 1.6-.5.4-1.1.8-1.8 1-.7.2-1.5.3-2.3.3-.7 0-1.4-.1-2-.2-.3.2-.5.4-.7.6-.2.2-.2.4-.2.6 0 .4.1.6.4.8.3.2.7.3 1.2.4.5.1 1 .1 1.7.1.6 0 1.3.1 1.9.1.6 0 1.3.1 1.9.2.6.1 1.2.3 1.7.6s.9.6 1.2 1.1c.3.5.4 1 .4 1.8 0 .7-.2 1.3-.5 1.9-.3.6-.8 1.2-1.4 1.7s-1.4.9-2.3 1.2c-.9.3-1.9.4-3.1.4-1.1 0-2.1-.1-3-.3s-1.5-.5-2.1-.9c-.6-.4-1-.8-1.3-1.3-.3-.5-.4-1-.4-1.5 0-.7.2-1.4.7-1.9.5-.5 1.1-.9 1.9-1.2-.4-.2-.8-.5-1.1-.8-.3-.3-.4-.8-.4-1.4 0-.2 0-.5.1-.7.1-.2.2-.5.4-.7.2-.2.4-.5.6-.7s.5-.4.9-.6c-.8-.4-1.4-1-1.8-1.7-.4-.7-.7-1.5-.7-2.5 0-.8.1-1.4.4-2 .3-.6.7-1.1 1.2-1.6.5-.4 1.1-.8 1.9-1 .7-.2 1.5-.3 2.4-.3 1.3 0 2.5.3 3.4.8h4.4zm-3 15.7c0-.4-.1-.7-.3-.9-.2-.2-.5-.4-.8-.5-.3-.1-.8-.2-1.2-.3-.5-.1-1-.1-1.5-.1s-1-.1-1.6-.1c-.5 0-1.1-.1-1.5-.1-.5.3-1 .6-1.3 1-.3.4-.5.8-.5 1.3 0 .3.1.6.2.9.2.3.4.5.8.7.3.2.8.4 1.3.5.5.1 1.2.2 1.9.2s1.4-.1 1.9-.2c.6-.1 1-.3 1.4-.5.4-.2.7-.5.9-.8.2-.4.3-.7.3-1.1zm-4.7-8.5c.5 0 1-.1 1.4-.2.4-.1.7-.3 1-.6.3-.3.5-.6.6-.9.1-.4.2-.8.2-1.2 0-.9-.3-1.6-.8-2.1s-1.3-.8-2.4-.8c-1 0-1.8.3-2.4.8-.5.5-.8 1.2-.8 2.1 0 .4.1.8.2 1.2.1.4.3.7.6.9.3.3.6.5 1 .6.4.1.9.2 1.4.2zM49.5 159c.5-1 1.1-1.8 1.8-2.4s1.5-.9 2.5-.9c.3 0 .6 0 .9.1.3.1.6.2.8.3l-.2 2.2c-.1.3-.2.4-.5.4-.1 0-.4 0-.6-.1-.3-.1-.6-.1-.9-.1-.5 0-.9.1-1.3.2s-.7.3-1 .6c-.3.3-.5.6-.8 1-.2.4-.4.8-.6 1.3v9.7h-3v-15.4h1.7c.3 0 .5.1.7.2.1.1.2.3.3.6l.2 2.3zM61.4 151.3c0 .3-.1.5-.2.8-.1.2-.3.5-.4.7-.2.2-.4.3-.7.4-.3.1-.5.2-.8.2-.3 0-.5-.1-.8-.2-.2-.1-.5-.3-.6-.4-.2-.2-.3-.4-.4-.7-.1-.2-.2-.5-.2-.8 0-.3.1-.5.2-.8.1-.2.3-.5.4-.7.2-.2.4-.3.6-.4.2-.1.5-.2.8-.2.3 0 .5.1.8.2s.5.3.7.4c.2.2.3.4.4.7.1.3.2.5.2.8zm-.6 4.8v15.4h-3v-15.4h3zM75.6 159l-.3.3c-.1.1-.2.1-.4.1s-.3-.1-.5-.2-.4-.3-.7-.4c-.3-.1-.6-.3-1-.4-.4-.1-.8-.2-1.4-.2-.7 0-1.4.1-1.9.4-.6.3-1 .6-1.4 1.1-.4.5-.6 1.1-.8 1.8-.2.7-.3 1.5-.3 2.4 0 .9.1 1.7.3 2.4.2.7.5 1.3.9 1.8s.8.8 1.4 1.1c.5.2 1.1.4 1.8.4.6 0 1.2-.1 1.6-.2.4-.2.8-.3 1-.5.3-.2.5-.4.7-.5.2-.2.4-.2.6-.2.2 0 .4.1.6.3l.8 1.1c-.4.4-.8.8-1.2 1.1-.4.3-.9.6-1.4.7-.5.2-1 .3-1.6.4-.5.1-1.1.1-1.6.1-1 0-1.9-.2-2.7-.5-.8-.4-1.6-.9-2.2-1.5-.6-.7-1.1-1.5-1.4-2.5-.4-1-.5-2.1-.5-3.4 0-1.1.2-2.2.5-3.2s.8-1.8 1.4-2.5c.6-.7 1.4-1.3 2.3-1.7.9-.4 2-.6 3.1-.6s2.1.2 2.9.5c.8.4 1.6.9 2.2 1.5l-.8 1zM91.9 156.1v15.4h-1.8c-.4 0-.7-.2-.8-.6l-.2-1.5c-.3.4-.7.7-1 1-.4.3-.8.5-1.2.8-.4.2-.9.4-1.3.5-.5.1-1 .2-1.5.2-.8 0-1.6-.1-2.2-.4-.6-.3-1.2-.7-1.6-1.2-.4-.5-.8-1.1-1-1.8-.2-.7-.3-1.5-.3-2.4v-9.8h3v9.8c0 1.1.3 2 .8 2.6.5.6 1.3.9 2.3.9.8 0 1.5-.2 2.1-.5.7-.4 1.3-.9 1.9-1.5v-11.3h2.8zM98.8 149.1v22.4h-3v-22.4h3zM107.6 171.7c-1.2 0-2.2-.3-2.9-1-.7-.7-1-1.7-1-3v-9.2h-1.8c-.2 0-.3-.1-.4-.2-.1-.1-.2-.3-.2-.5v-1.2l2.5-.3.7-4.6c0-.2.1-.3.2-.4.1-.1.3-.1.4-.1h1.5v5.2h4.4v2.2h-4.4v9c0 .6.1 1.1.4 1.4.3.3.7.4 1.1.4.3 0 .5 0 .7-.1.2-.1.4-.1.5-.2.1-.1.3-.2.4-.2.1-.1.2-.1.3-.1.1 0 .2 0 .2.1.1 0 .1.1.2.2l.9 1.4c-.5.4-1.1.8-1.7 1-.6.1-1.3.2-2 .2zM126.4 156.1v15.4h-1.8c-.4 0-.7-.2-.8-.6l-.2-1.5c-.3.4-.7.7-1 1-.4.3-.8.5-1.2.8s-.9.4-1.3.5c-.5.1-1 .2-1.5.2-.8 0-1.6-.1-2.2-.4-.6-.3-1.2-.7-1.6-1.2-.4-.5-.8-1.1-1-1.8-.2-.7-.3-1.5-.3-2.4v-9.8h3v9.8c0 1.1.3 2 .8 2.6.5.6 1.3.9 2.3.9.8 0 1.5-.2 2.1-.5.7-.4 1.3-.9 1.9-1.5v-11.3h2.8zM133.1 159c.5-1 1.1-1.8 1.8-2.4.7-.6 1.5-.9 2.5-.9.3 0 .7 0 .9.1.3.1.6.2.8.3l-.2 2.2c-.1.3-.2.4-.5.4-.1 0-.4 0-.6-.1-.3-.1-.6-.1-.9-.1-.5 0-.9.1-1.3.2s-.7.3-1 .6c-.3.3-.5.6-.8 1-.2.4-.4.8-.6 1.3v9.7h-3v-15.4h1.7c.3 0 .5.1.7.2.1.1.2.3.3.6l.2 2.3zM141.1 158.2c.9-.8 1.8-1.4 2.8-1.8 1-.4 2.1-.6 3.3-.6.9 0 1.7.1 2.3.4.7.3 1.2.7 1.7 1.2s.8 1.1 1.1 1.9c.2.7.4 1.5.4 2.4v9.8h-1.3c-.3 0-.5 0-.7-.1s-.3-.3-.4-.5l-.3-1.4c-.4.4-.8.7-1.2 1-.4.3-.8.5-1.2.7-.4.2-.9.3-1.3.4-.5.1-1 .2-1.6.2-.6 0-1.2-.1-1.7-.2-.5-.2-1-.4-1.4-.8-.4-.3-.7-.8-.9-1.3-.2-.5-.3-1.1-.3-1.8 0-.6.2-1.2.5-1.8.3-.6.9-1.1 1.6-1.5.7-.4 1.7-.8 2.9-1.1 1.2-.3 2.7-.4 4.4-.5v-1.1c0-1.2-.2-2-.7-2.6-.5-.6-1.2-.9-2.2-.9-.6 0-1.2.1-1.6.2-.4.2-.8.3-1.1.5-.3.2-.6.4-.8.5-.2.2-.5.2-.7.2-.2 0-.4-.1-.5-.2-.1-.1-.3-.2-.4-.4l-.7-.8zm8.7 6.4c-1.2 0-2.2.1-3.1.3-.8.1-1.5.3-2 .6-.5.2-.9.5-1.1.9-.2.3-.3.7-.3 1.1 0 .4.1.7.2 1 .1.3.3.5.5.7.2.2.5.3.8.4.3.1.6.1 1 .1.5 0 .9 0 1.3-.1s.7-.2 1.1-.4c.3-.2.7-.4 1-.6.3-.2.6-.5.9-.8v-3.2zM159.5 149.1v22.4h-3v-22.4h3zM190.8 171.5h-2.9c-.3 0-.6 0-.8-.1-.2-.1-.4-.2-.6-.5l-2-2c-1 .9-2 1.6-3.3 2.1-1.2.5-2.6.8-4 .8-.8 0-1.6-.1-2.4-.4-.8-.3-1.5-.7-2.1-1.2-.6-.5-1.1-1.2-1.5-1.9-.4-.8-.6-1.6-.6-2.6 0-.7.1-1.4.3-2 .2-.6.6-1.2 1-1.7s.9-1 1.5-1.4c.6-.4 1.2-.8 1.9-1.1-.6-.8-1-1.5-1.3-2.3-.3-.7-.4-1.5-.4-2.3 0-.7.1-1.4.4-2.1.3-.7.7-1.2 1.2-1.7s1.1-.9 1.9-1.2c.7-.3 1.6-.4 2.5-.4.8 0 1.6.1 2.2.4.7.3 1.3.6 1.7 1 .5.4.9.9 1.1 1.5.3.6.4 1.2.5 1.8l-1.9.4c-.4.1-.6-.1-.8-.5-.1-.3-.2-.5-.3-.8s-.3-.5-.6-.7c-.2-.2-.5-.4-.9-.5-.3-.1-.7-.2-1.2-.2s-.9.1-1.3.2c-.4.2-.7.4-1 .7-.3.3-.5.6-.6 1-.1.4-.2.8-.2 1.2 0 .3 0 .7.1 1 .1.3.2.6.4 1 .2.3.4.6.6 1 .3.3.6.7.9 1.1l6.1 6.3c.4-.7.7-1.4.9-2.1.2-.7.4-1.5.4-2.2 0-.2.1-.4.2-.5.1-.1.3-.2.5-.2h1.8c0 1.2-.2 2.4-.6 3.5s-.9 2.2-1.5 3.2l4.7 4.4zm-14.2-10.6c-1 .6-1.7 1.2-2.2 2-.5.8-.7 1.6-.7 2.5 0 .6.1 1.2.3 1.7s.5.9.9 1.2c.4.3.8.6 1.3.8.5.2 1 .3 1.5.3 1.1 0 2-.2 2.9-.6.9-.4 1.6-.9 2.3-1.5l-6.3-6.4zM213.9 168.8v2.7h-12.5v-21.8h3.2v19.1h9.3zM219.9 151.3c0 .3-.1.5-.2.8-.1.2-.3.5-.4.7-.2.2-.4.3-.7.4-.3.1-.5.2-.8.2-.3 0-.5-.1-.8-.2-.2-.1-.5-.3-.6-.4-.2-.2-.3-.4-.4-.7-.1-.2-.2-.5-.2-.8 0-.3.1-.5.2-.8.1-.2.3-.5.4-.7.2-.2.4-.3.6-.4.2-.1.5-.2.8-.2.3 0 .5.1.8.2.3.1.5.3.7.4.2.2.3.4.4.7.1.3.2.5.2.8zm-.6 4.8v15.4h-3v-15.4h3zM224.2 171.5v-13l-1.6-.2c-.2-.1-.4-.1-.6-.3-.1-.1-.2-.3-.2-.5v-1.2h2.4v-1.4c0-.9.1-1.7.4-2.4.3-.7.6-1.3 1.1-1.8.5-.5 1-.8 1.7-1.1.7-.2 1.4-.4 2.2-.4.7 0 1.3.1 1.9.3l-.1 1.5c0 .1-.1.2-.1.3s-.2.1-.3.1-.3 0-.4.1h-.5c-.5 0-.9.1-1.2.2s-.7.3-1 .6-.5.6-.6 1-.2 1-.2 1.6v1.3h4.3v2.2h-4.2v13h-3zM246.3 169.3c-.4.4-.8.8-1.3 1.1-.5.3-1 .6-1.5.8-.5.2-1.1.3-1.7.4-.6.1-1.1.1-1.7.1-1.1 0-2-.2-3-.5-.9-.4-1.7-.9-2.4-1.6-.7-.7-1.2-1.6-1.5-2.6-.4-1-.6-2.2-.6-3.5 0-1.1.2-2.1.5-3 .3-.9.8-1.7 1.4-2.4.6-.7 1.4-1.2 2.3-1.6.9-.4 1.9-.6 3-.6.9 0 1.8.2 2.6.5s1.5.8 2.1 1.3c.6.6 1 1.3 1.4 2.2.3.9.5 1.8.5 2.9 0 .5-.1.8-.2.9-.1.2-.3.2-.6.2h-10.1c0 .9.2 1.7.4 2.4s.6 1.3 1 1.7c.4.5.9.8 1.5 1 .6.2 1.2.3 1.9.3s1.2-.1 1.7-.2.9-.3 1.2-.5c.3-.2.6-.3.9-.5.2-.2.4-.2.6-.2.2 0 .4.1.6.3l1 1.1zm-2.5-7.2c0-.6-.1-1.1-.3-1.6-.2-.5-.4-.9-.7-1.3s-.7-.6-1.2-.9c-.5-.2-1-.3-1.6-.3-1.2 0-2.2.4-2.9 1.1-.7.7-1.2 1.7-1.4 3h8.1zM269.2 153.2c-.1.2-.2.3-.3.4-.1.1-.3.1-.4.1-.2 0-.4-.1-.6-.3-.2-.2-.5-.4-.9-.6-.3-.2-.8-.4-1.3-.6-.5-.2-1.1-.3-1.7-.3-.6 0-1.2.1-1.7.3-.5.2-.9.4-1.2.7-.3.3-.6.6-.7 1-.2.4-.3.8-.3 1.3 0 .6.1 1.1.4 1.5.3.4.7.7 1.2 1 .5.3 1 .5 1.7.7.6.2 1.2.4 1.9.6.6.2 1.3.5 1.9.8.6.3 1.2.6 1.7 1.1.5.4.9 1 1.2 1.6.3.6.4 1.4.4 2.3 0 1-.2 1.9-.5 2.7-.3.8-.8 1.6-1.4 2.2-.6.6-1.4 1.1-2.3 1.5-.9.4-2 .5-3.1.5-.7 0-1.4-.1-2-.2-.7-.1-1.3-.3-1.9-.6-.6-.2-1.1-.5-1.6-.9-.5-.3-1-.7-1.4-1.2l.9-1.5.3-.3c.1-.1.3-.1.4-.1.2 0 .5.1.7.3s.6.5 1 .7c.4.3.9.5 1.5.7.6.2 1.3.3 2.1.3.7 0 1.3-.1 1.8-.3.5-.2 1-.4 1.3-.8.4-.3.6-.7.8-1.2.2-.5.3-1 .3-1.5 0-.6-.1-1.2-.4-1.6-.3-.4-.7-.7-1.2-1-.5-.3-1-.5-1.7-.7-.6-.2-1.2-.4-1.9-.6-.6-.2-1.3-.4-1.9-.7-.6-.3-1.2-.6-1.7-1.1-.5-.4-.9-1-1.2-1.7-.3-.7-.4-1.5-.4-2.5 0-.8.2-1.5.5-2.3.3-.7.7-1.4 1.3-1.9.6-.6 1.3-1 2.1-1.4.9-.3 1.8-.5 2.9-.5 1.2 0 2.3.2 3.4.6 1 .4 1.9.9 2.7 1.7l-.7 1.8zM284.6 159l-.3.3c-.1.1-.2.1-.4.1s-.3-.1-.5-.2-.4-.3-.7-.4c-.3-.1-.6-.3-1-.4-.4-.1-.8-.2-1.4-.2-.7 0-1.4.1-1.9.4-.6.3-1 .6-1.4 1.1-.4.5-.6 1.1-.8 1.8-.2.7-.3 1.5-.3 2.4 0 .9.1 1.7.3 2.4.2.7.5 1.3.9 1.8s.8.8 1.4 1.1c.5.2 1.1.4 1.8.4.6 0 1.2-.1 1.6-.2.4-.2.8-.3 1-.5.3-.2.5-.4.7-.5.2-.2.4-.2.6-.2.2 0 .4.1.6.3l.8 1.1c-.4.4-.8.8-1.2 1.1-.4.3-.9.6-1.4.7-.5.2-1 .3-1.6.4-.5.1-1.1.1-1.6.1-1 0-1.9-.2-2.7-.5-.8-.4-1.6-.9-2.2-1.5-.6-.7-1.1-1.5-1.4-2.5s-.5-2.1-.5-3.4c0-1.1.2-2.2.5-3.2s.8-1.8 1.4-2.5c.6-.7 1.4-1.3 2.3-1.7.9-.4 2-.6 3.1-.6s2.1.2 2.9.5c.8.4 1.6.9 2.2 1.5l-.8 1zM291.6 151.3c0 .3-.1.5-.2.8-.1.2-.3.5-.4.7-.2.2-.4.3-.7.4-.3.1-.5.2-.8.2-.3 0-.5-.1-.8-.2-.2-.1-.5-.3-.6-.4-.2-.2-.3-.4-.4-.7-.1-.2-.2-.5-.2-.8 0-.3.1-.5.2-.8.1-.2.3-.5.4-.7.2-.2.4-.3.6-.4.2-.1.5-.2.8-.2.3 0 .5.1.8.2.3.1.5.3.7.4.2.2.3.4.4.7.1.3.2.5.2.8zm-.6 4.8v15.4h-3v-15.4h3zM307.7 169.3c-.4.4-.8.8-1.3 1.1-.5.3-1 .6-1.5.8-.5.2-1.1.3-1.7.4-.6.1-1.1.1-1.7.1-1.1 0-2-.2-3-.5-.9-.4-1.7-.9-2.4-1.6-.7-.7-1.2-1.6-1.5-2.6-.4-1-.6-2.2-.6-3.5 0-1.1.2-2.1.5-3 .3-.9.8-1.7 1.4-2.4.6-.7 1.4-1.2 2.3-1.6.9-.4 1.9-.6 3-.6.9 0 1.8.2 2.6.5s1.5.8 2.1 1.3c.6.6 1 1.3 1.4 2.2.3.9.5 1.8.5 2.9 0 .5-.1.8-.2.9-.1.2-.3.2-.6.2h-10.1c0 .9.2 1.7.4 2.4s.6 1.3 1 1.7c.4.5.9.8 1.5 1 .6.2 1.2.3 1.9.3s1.2-.1 1.7-.2.9-.3 1.2-.5c.3-.2.6-.3.9-.5.2-.2.4-.2.6-.2.2 0 .4.1.6.3l1 1.1zm-2.4-7.2c0-.6-.1-1.1-.3-1.6s-.4-.9-.7-1.3c-.3-.4-.7-.6-1.2-.9-.5-.2-1-.3-1.6-.3-1.2 0-2.2.4-2.9 1.1-.7.7-1.2 1.7-1.4 3h8.1zM313.8 158.2c.3-.4.7-.7 1-1 .4-.3.8-.5 1.2-.8.4-.2.8-.4 1.3-.5.5-.1 1-.2 1.5-.2.8 0 1.6.1 2.2.4.6.3 1.2.7 1.6 1.2.4.5.8 1.1 1 1.8s.3 1.5.3 2.4v9.8h-3v-9.8c0-1.1-.3-2-.8-2.6-.5-.6-1.3-.9-2.3-.9-.8 0-1.5.2-2.1.5-.7.4-1.3.8-1.8 1.5v11.3h-3v-15.4h1.8c.4 0 .7.2.8.6l.3 1.7zM338.7 159l-.3.3c-.1.1-.2.1-.4.1s-.3-.1-.5-.2-.4-.3-.7-.4c-.3-.1-.6-.3-1-.4-.4-.1-.8-.2-1.4-.2-.7 0-1.4.1-1.9.4-.6.3-1 .6-1.4 1.1-.4.5-.6 1.1-.8 1.8-.2.7-.3 1.5-.3 2.4 0 .9.1 1.7.3 2.4.2.7.5 1.3.9 1.8s.8.8 1.4 1.1c.5.2 1.1.4 1.8.4.6 0 1.2-.1 1.6-.2.4-.2.8-.3 1-.5.3-.2.5-.4.7-.5.2-.2.4-.2.6-.2.2 0 .4.1.6.3l.8 1.1c-.4.4-.8.8-1.2 1.1-.4.3-.9.6-1.4.7-.5.2-1 .3-1.6.4-.5.1-1.1.1-1.6.1-1 0-1.9-.2-2.7-.5-.8-.4-1.6-.9-2.2-1.5-.6-.7-1.1-1.5-1.4-2.5s-.5-2.1-.5-3.4c0-1.1.2-2.2.5-3.2s.8-1.8 1.4-2.5c.6-.7 1.4-1.3 2.3-1.7.9-.4 2-.6 3.1-.6s2.1.2 2.9.5c.8.4 1.6.9 2.2 1.5l-.8 1zM354.5 169.3c-.4.4-.8.8-1.3 1.1-.5.3-1 .6-1.5.8-.5.2-1.1.3-1.7.4-.6.1-1.1.1-1.7.1-1.1 0-2-.2-3-.5-.9-.4-1.7-.9-2.4-1.6-.7-.7-1.2-1.6-1.5-2.6-.4-1-.6-2.2-.6-3.5 0-1.1.2-2.1.5-3 .3-.9.8-1.7 1.4-2.4.6-.7 1.4-1.2 2.3-1.6.9-.4 1.9-.6 3-.6.9 0 1.8.2 2.6.5s1.5.8 2.1 1.3c.6.6 1 1.3 1.4 2.2.3.9.5 1.8.5 2.9 0 .5-.1.8-.2.9-.1.2-.3.2-.6.2h-10.1c0 .9.2 1.7.4 2.4s.6 1.3 1 1.7c.4.5.9.8 1.5 1 .6.2 1.2.3 1.9.3s1.2-.1 1.7-.2c.5-.2.9-.3 1.2-.5.3-.2.6-.3.9-.5.2-.2.4-.2.6-.2.2 0 .4.1.6.3l1 1.1zm-2.4-7.2c0-.6-.1-1.1-.3-1.6s-.4-.9-.7-1.3-.7-.6-1.2-.9c-.5-.2-1-.3-1.6-.3-1.2 0-2.2.4-2.9 1.1-.7.7-1.2 1.7-1.4 3h8.1zM366.9 158.7l-.3.3c-.1.1-.2.1-.3.1-.2 0-.3-.1-.5-.2s-.4-.2-.7-.4c-.3-.1-.6-.3-1-.4-.4-.1-.8-.2-1.3-.2-.4 0-.8.1-1.2.2-.3.1-.6.3-.9.4-.2.2-.4.4-.6.7-.1.3-.2.5-.2.8 0 .4.1.7.3 1 .2.3.5.5.9.7.4.2.8.3 1.3.5s1 .3 1.4.5c.5.2 1 .3 1.4.6s.9.5 1.3.8c.4.3.7.7.9 1.1.2.4.3 1 .3 1.6 0 .7-.1 1.4-.4 2-.3.6-.6 1.1-1.1 1.6-.5.4-1.1.8-1.9 1-.7.3-1.6.4-2.5.4-1.1 0-2-.2-2.9-.5-.9-.4-1.7-.8-2.3-1.3l.7-1.1c.1-.1.2-.3.3-.3.1-.1.3-.1.5-.1s.4.1.6.2c.2.1.4.3.7.5.3.2.6.3 1 .5.4.1.9.2 1.5.2.5 0 .9-.1 1.3-.2s.7-.3.9-.5c.2-.2.4-.5.6-.8.1-.3.2-.6.2-.9 0-.4-.1-.7-.3-1-.2-.3-.5-.5-.9-.7-.4-.2-.8-.4-1.3-.5-.5-.1-1-.3-1.5-.5s-1-.3-1.5-.6c-.5-.2-.9-.5-1.3-.8-.4-.3-.7-.7-.9-1.2-.2-.5-.3-1-.3-1.7 0-.6.1-1.2.4-1.7.2-.5.6-1 1.1-1.4.5-.4 1.1-.7 1.7-1 .7-.2 1.5-.4 2.4-.4 1 0 1.9.2 2.8.5.8.3 1.5.8 2.1 1.3l-.5.9z"/>
      <g>
        <path class="st1" d="M44.7 192.5c.4 0 .8-.1 1.2-.2s.7-.4.9-.6c.2-.3.4-.6.6-1 .1-.4.2-.8.2-1.3v-7h1.9v7c0 .7-.1 1.3-.3 1.9-.2.6-.5 1.1-.9 1.5-.4.4-.9.8-1.5 1s-1.2.4-2 .4c-.7 0-1.4-.1-2-.4-.6-.2-1.1-.6-1.5-1-.4-.4-.7-.9-.9-1.5s-.3-1.2-.3-1.9v-7H42v7c0 .5.1.9.2 1.3s.3.7.6 1c.2.3.5.5.9.6.1.1.5.2 1 .2zM61.6 182.4V194h-1c-.1 0-.3 0-.4-.1-.1-.1-.2-.1-.3-.3l-6.4-8.2v8.5H52v-11.6h1.4l.1.1s.1.1.1.2l6.4 8.2v-.5-8.1h1.6zM66.3 194h-1.9v-11.6h1.9V194zM78.8 182.4L74.1 194h-1.7l-4.7-11.6h1.5c.2 0 .3 0 .4.1.1.1.2.2.2.3l3 7.6c.2.4.3.9.4 1.5.1-.3.1-.5.2-.8.1-.2.1-.5.2-.7l3-7.6c0-.1.1-.2.2-.3.1-.1.2-.1.4-.1h1.6zM87.5 192.5v1.5h-7.2v-11.6h7.2v1.5h-5.3v3.5h4.3v1.5h-4.3v3.6h5.3zM98.2 194h-1.7c-.3 0-.6-.1-.7-.4l-2.7-3.9-.3-.3c-.1-.1-.3-.1-.5-.1h-1v4.7h-1.9v-11.6h3.4c.8 0 1.4.1 2 .2.6.2 1 .4 1.4.7s.6.6.8 1c.2.4.3.9.3 1.3s-.1.8-.2 1.1c-.1.3-.3.7-.5 1-.2.3-.5.5-.8.7-.3.2-.7.4-1.1.5.2.1.4.3.6.6l2.9 4.5zm-5.4-6c.4 0 .8-.1 1.1-.2.3-.1.6-.3.8-.4.2-.2.4-.4.5-.7.1-.3.2-.6.2-.9 0-.6-.2-1.1-.6-1.5-.4-.3-1.1-.5-1.9-.5h-1.5v4.1h1.4zM105.8 184.4c-.1.1-.1.2-.2.2s-.1.1-.2.1-.2 0-.3-.1c-.1-.1-.3-.2-.5-.3-.2-.1-.4-.2-.7-.3-.3-.1-.6-.1-.9-.1-.3 0-.6 0-.9.1l-.6.3c-.2.1-.3.3-.4.5-.1.2-.1.4-.1.6 0 .3.1.5.2.7.2.2.4.4.6.5.3.1.5.3.9.4.3.1.7.2 1 .3.3.1.7.3 1 .4.3.2.6.3.9.6.3.2.5.5.6.8.2.3.2.7.2 1.2s-.1 1-.3 1.5c-.2.5-.4.8-.8 1.2-.3.3-.7.6-1.2.8-.5.2-1.1.3-1.7.3-.4 0-.7 0-1.1-.1-.4-.1-.7-.2-1-.3-.3-.1-.6-.3-.9-.5-.3-.2-.5-.4-.7-.6l.5-.9c0-.1.1-.1.2-.2.1 0 .2-.1.3-.1.1 0 .3.1.4.2.1.1.3.2.5.4.2.1.5.3.8.4.3.1.7.2 1.1.2.7 0 1.2-.2 1.6-.5.4-.3.6-.8.6-1.4 0-.3-.1-.6-.2-.8-.2-.2-.4-.4-.6-.5-.3-.1-.5-.3-.9-.4-.3-.1-.7-.2-1-.3-.3-.1-.7-.2-1-.4-.3-.1-.6-.3-.9-.6-.3-.2-.5-.5-.6-.9-.2-.4-.2-.8-.2-1.3 0-.4.1-.8.2-1.2.2-.4.4-.7.7-1 .3-.3.7-.5 1.2-.7.5-.2 1-.3 1.6-.3.7 0 1.3.1 1.8.3.6.2 1 .5 1.4.9l-.4.9zM110.5 194h-1.9v-11.6h1.9V194zM121.2 184h-3.6v10h-1.9v-10h-3.6v-1.6h9.1v1.6zM128.2 189.5v4.5h-1.9v-4.5l-4.2-7.1h1.7c.2 0 .3 0 .4.1.1.1.2.2.2.3l2.4 4.2.3.6c.1.2.2.4.2.6.1-.2.1-.4.2-.6l.3-.6 2.4-4.2c.1-.1.1-.2.2-.3.1-.1.2-.1.4-.1h1.7l-4.3 7.1zM148.8 188.2c0 .9-.1 1.7-.4 2.4-.3.7-.7 1.3-1.2 1.9-.5.5-1.1.9-1.8 1.2-.7.3-1.5.4-2.4.4-.9 0-1.7-.1-2.4-.4-.7-.3-1.3-.7-1.8-1.2s-.9-1.1-1.2-1.9c-.3-.7-.4-1.5-.4-2.4 0-.9.1-1.7.4-2.4.3-.7.7-1.4 1.2-1.9s1.1-.9 1.8-1.2c.7-.3 1.5-.4 2.4-.4.9 0 1.7.1 2.4.4.7.3 1.3.7 1.8 1.2s.9 1.2 1.2 1.9c.3.8.4 1.6.4 2.4zm-1.9 0c0-.7-.1-1.3-.3-1.8-.2-.5-.4-1-.8-1.4-.3-.4-.7-.7-1.2-.9-.5-.2-1-.3-1.6-.3-.6 0-1.1.1-1.6.3-.5.2-.9.5-1.2.9-.3.4-.6.8-.8 1.4-.2.5-.3 1.1-.3 1.8s.1 1.3.3 1.8c.2.5.4 1 .8 1.3.3.4.7.7 1.2.8.5.2 1 .3 1.6.3.6 0 1.1-.1 1.6-.3.5-.2.9-.5 1.2-.8.3-.4.6-.8.8-1.3.2-.5.3-1.1.3-1.8zM152.8 183.9v3.7h4.5v1.5h-4.5v4.8h-1.9v-11.6h7.2v1.5h-5.3zM179.5 182.4l-3.6 11.6h-1.7l-2.7-8.3c0-.1-.1-.2-.1-.3 0-.1-.1-.2-.1-.3 0 .1-.1.2-.1.3 0 .1-.1.2-.1.3l-2.7 8.3h-1.7l-3.6-11.6h1.6c.2 0 .3 0 .4.1.1.1.2.2.2.3l2.2 7.4c0 .2.1.3.1.5s.1.4.1.6c0-.2.1-.4.1-.6s.1-.4.1-.5l2.5-7.4c0-.1.1-.2.2-.3.1-.1.2-.1.4-.1h.5c.2 0 .3 0 .4.1.1.1.2.2.2.3l2.5 7.4c.1.2.1.3.1.5s.1.4.1.6c0-.2.1-.4.1-.6 0-.2.1-.3.1-.5l2.2-7.4c0-.1.1-.2.2-.3.1-.1.3-.1.4-.1h1.7zM182.9 194H181v-11.6h1.9V194zM191.7 184.4c-.1.1-.1.2-.2.2s-.1.1-.2.1-.2 0-.3-.1c-.1-.1-.3-.2-.5-.3-.2-.1-.4-.2-.7-.3-.3-.1-.6-.1-.9-.1-.3 0-.6 0-.8.1-.2.1-.5.2-.6.3-.2.1-.3.3-.4.5-.1.2-.1.4-.1.6 0 .3.1.5.2.7.2.2.4.4.6.5.3.1.5.3.9.4.3.1.7.2 1 .3.3.1.7.3 1 .4.3.2.6.3.9.6.3.2.5.5.6.8.2.3.2.7.2 1.2s-.1 1-.3 1.5c-.2.5-.4.8-.8 1.2-.3.3-.7.6-1.2.8-.5.2-1.1.3-1.7.3-.4 0-.7 0-1.1-.1-.4-.1-.7-.2-1-.3-.3-.1-.6-.3-.9-.5-.3-.2-.5-.4-.7-.6l.5-.9c0-.1.1-.1.2-.2.1 0 .2-.1.2-.1.1 0 .3.1.4.2.2.1.3.2.5.4.2.1.5.3.8.4.3.1.7.2 1.1.2.7 0 1.2-.2 1.6-.5.4-.3.6-.8.6-1.4 0-.3-.1-.6-.2-.8s-.4-.4-.6-.5c-.3-.1-.5-.3-.9-.4-.3-.1-.7-.2-1-.3-.3-.1-.7-.2-1-.4-.3-.1-.6-.3-.9-.6-.3-.2-.5-.5-.6-.9-.2-.4-.2-.8-.2-1.3 0-.4.1-.8.2-1.2.2-.4.4-.7.7-1 .3-.3.7-.5 1.2-.7.5-.2 1-.3 1.6-.3.7 0 1.3.1 1.8.3.6.2 1 .5 1.4.9l-.4.9zM202.6 191.4c.1 0 .2 0 .3.1l.8.8c-.5.6-1.1 1-1.7 1.3-.7.3-1.5.5-2.5.5-.8 0-1.6-.1-2.3-.4-.7-.3-1.3-.7-1.8-1.2s-.9-1.1-1.1-1.9c-.3-.7-.4-1.5-.4-2.4 0-.9.1-1.7.4-2.4.3-.7.7-1.4 1.2-1.9s1.1-.9 1.8-1.2c.7-.3 1.5-.4 2.3-.4.8 0 1.6.1 2.2.4.6.3 1.2.6 1.7 1.1l-.6.9c0 .1-.1.1-.2.2s-.1.1-.2.1-.2 0-.4-.1c-.1-.1-.3-.2-.5-.3-.2-.1-.5-.2-.8-.3s-.7-.1-1.2-.1c-.6 0-1.1.1-1.5.3-.5.2-.9.5-1.2.8-.3.4-.6.8-.8 1.4-.2.5-.3 1.1-.3 1.8s.1 1.3.3 1.8c.2.5.5 1 .8 1.4.3.4.7.6 1.2.8.5.2.9.3 1.5.3.3 0 .6 0 .9-.1.3 0 .5-.1.7-.2l.6-.3c.2-.1.4-.3.6-.4-.1-.3 0-.4.2-.4zM215.8 188.2c0 .9-.1 1.7-.4 2.4-.3.7-.7 1.3-1.2 1.9-.5.5-1.1.9-1.8 1.2-.7.3-1.5.4-2.4.4-.9 0-1.7-.1-2.4-.4-.7-.3-1.3-.7-1.8-1.2s-.9-1.1-1.2-1.9c-.3-.7-.4-1.5-.4-2.4 0-.9.1-1.7.4-2.4.3-.7.7-1.4 1.2-1.9s1.1-.9 1.8-1.2c.7-.3 1.5-.4 2.4-.4.9 0 1.7.1 2.4.4.7.3 1.3.7 1.8 1.2s.9 1.2 1.2 1.9c.3.8.4 1.6.4 2.4zm-1.9 0c0-.7-.1-1.3-.3-1.8-.2-.5-.4-1-.8-1.4-.3-.4-.7-.7-1.2-.9-.5-.2-1-.3-1.6-.3-.6 0-1.1.1-1.6.3-.5.2-.9.5-1.2.9-.3.4-.6.8-.8 1.4-.2.5-.3 1.1-.3 1.8s.1 1.3.3 1.8c.2.5.4 1 .8 1.3.3.4.7.7 1.2.8.5.2 1 .3 1.6.3.6 0 1.1-.1 1.6-.3.5-.2.9-.5 1.2-.8.3-.4.6-.8.8-1.3.2-.5.3-1.1.3-1.8zM227.5 182.4V194h-1c-.1 0-.3 0-.4-.1-.1-.1-.2-.1-.3-.3l-6.4-8.2v8.5h-1.7v-11.6h1.4l.1.1s.1.1.1.2l6.4 8.2v-.5-8.1h1.8zM236.3 184.4c-.1.1-.1.2-.2.2s-.1.1-.2.1-.2 0-.3-.1c-.1-.1-.3-.2-.5-.3-.2-.1-.4-.2-.7-.3-.3-.1-.6-.1-.9-.1-.3 0-.6 0-.8.1-.2.1-.5.2-.6.3-.2.1-.3.3-.4.5-.1.2-.1.4-.1.6 0 .3.1.5.2.7.2.2.4.4.6.5.3.1.5.3.9.4.3.1.7.2 1 .3.3.1.7.3 1 .4.3.2.6.3.9.6.3.2.5.5.6.8.2.3.2.7.2 1.2s-.1 1-.3 1.5c-.2.5-.4.8-.8 1.2s-.7.6-1.2.8c-.5.2-1.1.3-1.7.3-.4 0-.7 0-1.1-.1-.4-.1-.7-.2-1-.3-.3-.1-.6-.3-.9-.5-.3-.2-.5-.4-.7-.6l.5-.9c0-.1.1-.1.2-.2.1 0 .2-.1.2-.1.1 0 .3.1.4.2.2.1.3.2.5.4.2.1.5.3.8.4.3.1.7.2 1.1.2.7 0 1.2-.2 1.6-.5.4-.3.6-.8.6-1.4 0-.3-.1-.6-.2-.8s-.4-.4-.6-.5c-.3-.1-.5-.3-.9-.4-.3-.1-.7-.2-1-.3-.3-.1-.7-.2-1-.4-.3-.1-.6-.3-.9-.6-.3-.2-.5-.5-.6-.9-.2-.4-.2-.8-.2-1.3 0-.4.1-.8.2-1.2.2-.4.4-.7.7-1 .3-.3.7-.5 1.2-.7.5-.2 1-.3 1.6-.3.7 0 1.3.1 1.8.3.6.2 1 .5 1.4.9l-.4.9zM241 194h-1.9v-11.6h1.9V194zM253.3 182.4V194h-1c-.1 0-.3 0-.4-.1-.1-.1-.2-.1-.3-.3l-6.4-8.2v8.5h-1.7v-11.6h1.4l.1.1s.1.1.1.2l6.4 8.2v-.5-8.1h1.8zM255.9 187.9h6.5v1.2h-6.5v-1.2zM277.3 182.4V194h-1.7v-8-.4-.5l-3.7 6.9c-.1.3-.4.4-.7.4h-.2c-.3 0-.5-.1-.7-.4l-3.8-6.9v8.9h-1.7v-11.6H266.6c.1 0 .2.1.2.3l3.7 6.7c.1.2.2.3.2.5.1.2.1.3.2.5.1-.2.1-.3.2-.5s.1-.3.2-.5l3.7-6.7c.1-.2.2-.2.2-.3h2.1zM289.8 194h-1.5c-.2 0-.3 0-.4-.1-.1-.1-.2-.2-.2-.3l-1-2.6h-5l-1 2.6c0 .1-.1.2-.2.3s-.2.1-.4.1h-1.5l4.6-11.6h1.9l4.7 11.6zm-3.6-4.3l-1.6-4.2c-.1-.3-.3-.7-.4-1.2-.1.3-.1.5-.2.7-.1.2-.1.4-.2.6l-1.6 4.2h4zM301.4 188.2c0 .9-.1 1.6-.4 2.4-.3.7-.7 1.3-1.2 1.8s-1.1.9-1.8 1.2c-.7.3-1.5.4-2.4.4h-4.4v-11.6h4.4c.9 0 1.7.1 2.4.4.7.3 1.3.7 1.8 1.2s.9 1.1 1.2 1.8c.3.8.4 1.6.4 2.4zm-1.9 0c0-.7-.1-1.3-.3-1.8-.2-.5-.4-1-.8-1.3-.3-.4-.7-.6-1.2-.8-.5-.2-1-.3-1.6-.3h-2.5v8.6h2.5c.6 0 1.1-.1 1.6-.3.5-.2.9-.5 1.2-.8.3-.4.6-.8.8-1.3.2-.7.3-1.3.3-2zM305.4 194h-1.9v-11.6h1.9V194zM314.3 184.4c-.1.1-.1.2-.2.2s-.1.1-.2.1-.2 0-.3-.1c-.1-.1-.3-.2-.5-.3-.2-.1-.4-.2-.7-.3-.3-.1-.6-.1-.9-.1-.3 0-.6 0-.8.1-.2.1-.5.2-.6.3-.2.1-.3.3-.4.5-.1.2-.1.4-.1.6 0 .3.1.5.2.7.2.2.4.4.6.5.3.1.5.3.9.4.3.1.7.2 1 .3.3.1.7.3 1 .4s.6.3.9.6c.3.2.5.5.6.8.2.3.2.7.2 1.2s-.1 1-.3 1.5c-.2.5-.4.8-.8 1.2s-.7.6-1.2.8c-.5.2-1.1.3-1.7.3-.4 0-.7 0-1.1-.1-.4-.1-.7-.2-1-.3-.3-.1-.6-.3-.9-.5-.3-.2-.5-.4-.7-.6l.5-.9c0-.1.1-.1.2-.2.1 0 .2-.1.2-.1.1 0 .3.1.4.2.2.1.3.2.5.4.2.1.5.3.8.4.3.1.7.2 1.1.2.7 0 1.2-.2 1.6-.5.4-.3.6-.8.6-1.4 0-.3-.1-.6-.2-.8s-.4-.4-.6-.5c-.3-.1-.5-.3-.9-.4-.3-.1-.7-.2-1-.3-.3-.1-.7-.2-1-.4-.3-.1-.6-.3-.9-.6s-.5-.5-.6-.9c-.2-.4-.2-.8-.2-1.3 0-.4.1-.8.2-1.2.2-.4.4-.7.7-1 .3-.3.7-.5 1.2-.7.5-.2 1-.3 1.6-.3.7 0 1.3.1 1.8.3.6.2 1 .5 1.4.9l-.4.9zM327.9 188.2c0 .9-.1 1.7-.4 2.4-.3.7-.7 1.3-1.2 1.9-.5.5-1.1.9-1.8 1.2-.7.3-1.5.4-2.4.4-.9 0-1.7-.1-2.4-.4-.7-.3-1.3-.7-1.8-1.2s-.9-1.1-1.2-1.9c-.3-.7-.4-1.5-.4-2.4 0-.9.1-1.7.4-2.4.3-.7.7-1.4 1.2-1.9s1.1-.9 1.8-1.2c.7-.3 1.5-.4 2.4-.4.9 0 1.7.1 2.4.4.7.3 1.3.7 1.8 1.2s.9 1.2 1.2 1.9c.3.8.4 1.6.4 2.4zm-1.9 0c0-.7-.1-1.3-.3-1.8-.2-.5-.4-1-.8-1.4-.3-.4-.7-.7-1.2-.9-.5-.2-1-.3-1.6-.3-.6 0-1.1.1-1.6.3-.5.2-.9.5-1.2.9-.3.4-.6.8-.8 1.4-.2.5-.3 1.1-.3 1.8s.1 1.3.3 1.8c.2.5.4 1 .8 1.3.3.4.7.7 1.2.8.5.2 1 .3 1.6.3.6 0 1.1-.1 1.6-.3.5-.2.9-.5 1.2-.8.3-.4.6-.8.8-1.3.2-.5.3-1.1.3-1.8zM339.6 182.4V194h-1c-.1 0-.3 0-.4-.1-.1-.1-.2-.1-.3-.3l-6.4-8.2v8.5H330v-11.6h1.4l.1.1s.1.1.1.2l6.4 8.2v-.5-8.1h1.6z"/>
      </g>
    </g>
  </g>
</svg>
